<?xml version="1.0" encoding="UTF-8"?>
<svg id="Layer_2" data-name="Layer 2" xmlns="http://www.w3.org/2000/svg" viewBox="0 0 512 405.8">
  <g id="Layer_1-2" data-name="Layer 1">
    <g id="xHFwhq.tif">
      <g>
        <path d="M512,124.39l-.04,225.32c-5.17,30.54-28.52,53.12-59.37,56.09H59.39C28.56,402.78,5.16,380.23,0,349.69V56.1C4.98,26.51,26.58,4.99,56.19.02l125.79-.02c21.98,3.9,40.28,16.37,49.65,36.48l26.31,56.44c4.76,10.21,15.11,17.04,26.82,17.05l210.31.08c8.61,0,14.96,5.74,16.94,14.34Z"/>
        <path d="M494.97,86.19h-209.78c-3.88-.43-5.45-2.57-6.86-5.66l-21.51-47.14,187.97-.12c33.63-.02,61.9,22.93,66.72,56.2-5.95-1.74-10.34-3.28-16.54-3.28Z"/>
      </g>
    </g>
  </g>
</svg>