<?xml version="1.0" encoding="UTF-8"?>
<svg id="Layer_2" data-name="Layer 2" xmlns="http://www.w3.org/2000/svg" viewBox="0 0 1000 1000">
  <defs>
    <style>
      .cls-1 {
        fill: #5a5857;
      }

      .cls-2 {
        fill: #646262;
      }

      .cls-3 {
        fill: #605e5d;
      }

      .cls-4 {
        fill: #636262;
      }

      .cls-5 {
        fill: #666465;
      }

      .cls-6 {
        fill: #fed98d;
      }

      .cls-7 {
        fill: #171817;
      }

      .cls-8 {
        fill: #62605f;
      }

      .cls-9 {
        fill: #5f5d5c;
      }

      .cls-10 {
        fill: #fbbf13;
      }

      .cls-11 {
        fill: #1e1e1e;
      }

      .cls-12 {
        fill: #615e5e;
      }

      .cls-13 {
        fill: #625f5f;
      }

      .cls-14 {
        fill: #a5a5a4;
      }

      .cls-15 {
        fill: #626060;
      }

      .cls-16 {
        fill: #676565;
      }

      .cls-17 {
        fill: #605d5d;
      }

      .cls-18 {
        fill: #5c5959;
      }

      .cls-19 {
        fill: #656464;
      }

      .cls-20 {
        fill: #fff;
      }

      .cls-21 {
        fill: #5d5a5a;
      }

      .cls-22 {
        fill: #636161;
      }

      .cls-23 {
        fill: #5e5c5c;
      }

      .cls-24 {
        fill: #5f5c5c;
      }

      .cls-25 {
        fill: #5e5c5b;
      }

      .cls-26 {
        fill: #070909;
      }

      .cls-27 {
        fill: #5c5a59;
      }

      .cls-28 {
        fill: #2f2d2d;
      }

      .cls-29 {
        fill: #5c5a5a;
      }

      .cls-30 {
        fill: #666464;
      }

      .cls-31 {
        fill: #5f5d5d;
      }

      .cls-32 {
        fill: #5b5858;
      }

      .cls-33 {
        fill: #2e2d2c;
      }

      .cls-34 {
        fill: #656363;
      }

      .cls-35 {
        fill: #3e3d3c;
      }
    </style>
  </defs>
  <g id="Layer_1-2" data-name="Layer 1">
    <g>
      <rect class="cls-20" width="1000" height="1000" rx="171.46" ry="171.46"/>
      <g>
        <path class="cls-10" d="M300.79,550.42h-166.44c-.45-1.84-.45-3.33,0-5.18h166.47c.45,1.59.45,2.75-.02,5.18Z"/>
        <path class="cls-10" d="M244.57,502.16H83.31c-.45-1.84-.45-3.33,0-5.18h161.28c.44,1.59.44,2.75-.02,5.18Z"/>
        <path class="cls-10" d="M299.93,456.48h-153.48c-.44-1.84-.45-3.33,0-5.18h153.5c.44,1.59.44,2.75-.02,5.18Z"/>
        <g>
          <path class="cls-10" d="M575.92,590.07H245.11c-.53-1.86-.54-3.32,0-5.19h330.96s.04-36.89.04-36.89c1.88-.33,3.32-.31,5.19,0l.05,36.94c0,1.67-.11,2.76-.99,3.74-1.14,1.27-2.01,1.4-4.46,1.4Z"/>
          <g>
            <path class="cls-14" d="M673.93,586.22c-1.39.8-2.84.51-4.06.12l-8.8-15.34-.2,15.5c-1.23.18-2.15.19-3.45,0l.04-20.44c1.31-.01,4.06-.91,4.78.28l8.04,13.43.16-13.74c1.24-.18,2.17-.19,3.44,0l.06,20.18Z"/>
            <path class="cls-14" d="M791.24,586.15c-.02.99-3.82.69-4.47-.42l-8.08-13.84-.18,14.61c-1.24.18-2.15.23-3.46-.05l.1-20.26c1.08-.51,3.79-.72,4.43.37l8.32,14.08.17-14.61c1.24-.18,2.12-.23,3.5.03l-.33,20.09Z"/>
            <path class="cls-14" d="M599.2,575.58c2.38,1.02,3.63,3.21,3.59,5.45-.03,1.6-1.6,4.47-3.74,5.18-3.4,1.13-7.05.03-10.82.41l-.02-20.66c5.07.31,11.13-1.69,12.8,3.26.7,2.08.38,3.95-1.82,6.36ZM592.54,574.39c2.41.6,4.99.11,5.14-1.26.16-1.57.41-3.54-.78-4.25-.8-.48-3.5-.74-4.48-.22-1.36.72-1.35,5.36.13,5.73ZM599.02,580.94c-.02-3.23-5.54-4.96-7.12-3.26-.58,2.34-.43,4.76.16,6.26,3.17.42,6.98.58,6.96-3Z"/>
            <path class="cls-14" d="M843.54,585.64c-2.59,1.56-7.3,1.5-9.77.31-4.75-2.31-5.14-7.85-4.48-12.28.86-5.77,5.14-8.23,10.66-7.94,4.27.23,6.86,1.93,7.97,6.27,1.18,4.65.81,10.51-4.38,13.65ZM844.66,578.66c.5-1.76.3-2.99.11-4.5-.51-3.93-3.51-6.01-6.91-5.65-4.03.42-4.98,3.89-4.98,7.75s.94,7.28,4.97,7.76c3.23.39,5.7-1.4,6.82-5.37Z"/>
            <path class="cls-14" d="M811.26,584.19c-3.03,3.67-10.81,3.45-14.24-.11-3.36-3.49-2.62-12.5.02-15.62,2.67-3.16,12.82-4.97,15.93,2.06,1.91,4.32,1.53,9.74-1.71,13.67ZM808.36,570.21c-1.39-1.27-4.04-2.55-6.23-1.29-4.42,2.54-5.15,9.54-2.17,13.46,1.84,2.41,5.33,1.92,7.39.75,4.02-2.29,4.04-10.13,1-12.91Z"/>
            <path class="cls-14" d="M650.94,567.44c4.84,4.63,3.63,13.9.98,16.65-1.94,2.02-4.26,2.59-7.44,2.69-4.62.15-7.63-1.62-8.93-6.06-1.77-6,.27-13.7,7.03-14.69,3.2-.47,6.28-.58,8.36,1.41ZM647.66,569.12c-2.01-.9-5.02-1.09-6.97,1.03-2.88,3.14-2.91,9.11,0,12.24,2.16,2.32,5.56,1.93,7.55.7,3.22-2,3.6-12.09-.58-13.97Z"/>
            <path class="cls-14" d="M688.86,586.3c-3.42.92-6.62.01-9.8.31v-20.69c3.45.35,6.87-.69,10.03.38,4.27,1.44,6.6,5.6,6.43,9.55s-1.86,9.16-6.66,10.45ZM689.14,582.83c3.26-3.2,3.68-8.69.92-12.35-1.7-2.25-4.88-2.17-7.52-1.85v15.29c2.22.14,4.91.56,6.6-1.1Z"/>
            <path class="cls-14" d="M863.6,578.22c-1.98-.86-5.05,1.14-4.97-2.49,2.91-.68,5.78-.23,8.98-.31l-.14,10.29c-3.52,1.07-7.86,1.67-11.34.27-4.3-1.73-6.06-6-5.88-10.15.15-3.64,2.28-8.21,6.43-9.53,2.78-.88,6.15-.55,8.82-.06,1.98.36,2.98,3.46,1.43,4.1-3.43-1.88-7.38-2.69-10.29-.28-2.72,2.25-3.61,5.96-2.24,9.46,1.21,3.12,5.64,5.78,9.11,3.88,1.07-.59,1.21-4.71.11-5.18Z"/>
            <path class="cls-14" d="M769.92,586.22c-1.12.76-2.24.37-3.48.29l-.05-9.34h-8.58s-.05,9.35-.05,9.35c-1.26.16-2.16.19-3.45-.02v-20.45c1.29-.21,2.18-.18,3.45-.02l.06,8.49h8.57s.06-8.49.06-8.49c1.26-.15,2.16-.18,3.44.02l.04,20.18Z"/>
            <path class="cls-14" d="M616.74,576.93l-7.68.26c-.16,2.36-.16,4.39,0,6.8l8.47.06c.21.95.21,1.57,0,2.58l-12-.04v-20.63s12-.04,12-.04c.22,1.01.21,1.63,0,2.58l-8.46.06c-.18,2.13-.17,3.81,0,5.94,1.2.72,10.44-1.58,7.68,2.44Z"/>
            <path class="cls-14" d="M732.26,574.71c.78.03.55,1.85.21,2.32l-6.64.16c-.01,2.5-.5,4.92.37,7.05,3.44-.02,6.73-1.57,8.85,1.97-4.45.88-8.33.21-12.75.39v-20.65s10.36,0,10.36,0c.66,0,1.67.83,1.66,1.27s-.99,1.24-1.66,1.25l-6.8.09c-.2,2.11-.2,3.83,0,5.92l6.41.24Z"/>
            <path class="cls-14" d="M739.64,575.11c-.52,3.58.61,6.43,3.09,7.97s5.51,1.38,8.25-1.21c1.39,1.46.81,2.63-.07,3.51-2.16,2.17-9.4,1.53-11.11.03-5.54-4.85-5.13-14.75,1.29-18.79,2.43-1.53,6.01-.66,8.49-.4,2.05.22,2.84,4.01,1.54,3.84-2.75-.35-4.74-2.26-7.2-1.26-2.27.93-3.8,2.92-4.28,6.31Z"/>
            <path class="cls-14" d="M884.87,566.55l-5.82,12.42c-1.09,2.32.25,5.04-.26,7.53-1.15.2-2.16.21-3.31-.01-.49-2.48.83-5.2-.26-7.53l-5.82-12.41c-.36-.78,2.09-.76,2.85-.56,1.79.47,3.05,6.61,5.37,8.67,3.59-12.58,7.32-8.26,7.25-8.11Z"/>
            <path class="cls-14" d="M634.89,566.55l-5.82,12.42c-1.09,2.32.25,5.04-.26,7.53-1.15.2-2.16.21-3.31-.01-.49-2.48.83-5.2-.26-7.53l-5.82-12.41c-.36-.78,2.09-.76,2.85-.56,1.79.47,3.05,6.61,5.37,8.67,3.59-12.58,7.32-8.26,7.25-8.11Z"/>
            <path class="cls-14" d="M713.66,568.57v17.93c-1.28.2-2.19.2-3.46,0l-.02-18.07c-2.82-.14-5.82,1.33-7.45-2.21l16.85-.34c.24,1.09.21,1.65.03,2.61l-5.94.09Z"/>
            <path class="cls-14" d="M828.3,584c.72.79.45,1.62.27,2.63l-11.12-.05v-20.54c1.29-.2,2.18-.2,3.46,0v17.92s7.39.04,7.39.04Z"/>
          </g>
        </g>
        <g>
          <g>
            <path class="cls-26" d="M752.58,471.13c-6.02.23-11.42.59-16.19,1.07l-1.11,1.52-.06,56.75c0,1.72-2.35,2.76-3.26,3.62-2.01-1.14-3.78-1.27-5.37-2.47l.07-59.62c-5.08-.32-10.28-.61-15.59-.86-1.66-.7-3.63-.41-5.42-1.39l1.38-6.38h47.01c.32,1.97,1.05,3.43,1.02,5.15-.03,1.45-1.6,2.11-2.46,2.62Z"/>
            <path class="cls-2" d="M752.58,471.13c-4.45,2.63-13.72-1.32-17.3,2.59,0-.59-.26-1.62.23-2.55l17.07-.04Z"/>
            <path class="cls-34" d="M726.65,471.99c-5.19-.59-10.73,1.19-15.59-.86h14.72c.75,0,.87.56.87.86Z"/>
          </g>
          <g>
            <path class="cls-26" d="M770.74,471.99c-1.24.52-2.1,1.38-2.59,2.59.28,6.23.57,12.55.86,18.96l30.66.07,1.73,4.14c.39.93-1.06,3.37-2.21,3.38l-28.45.17c-1.25.53-2.11,1.4-2.59,2.59.64,7.3.93,14.76.86,22.41l32.39.08,1.73,4.12c.39.94-1.07,3.43-2.22,3.43h-36.05c-1.51-.14-3.35-1.67-4.53-2.43l.02-68.1,41.28-.02c.17,1.99,1.12,3.55,1.04,5.22-.11,2.62-2.76,3.51-5.04,3.5l-26.89-.09Z"/>
            <path class="cls-19" d="M769.01,526.28l-.86-22.41c.25-.75.53-.74.86,0v22.41Z"/>
            <path class="cls-19" d="M769.01,493.54c-2.06-6.06-.27-12.68-.86-18.96.25-.75.53-.74.86,0v18.96Z"/>
            <path class="cls-9" d="M770.74,471.99l-1.73,2.59h-.86c-.13-1.31-.18-2.25.5-2.52s1.47-.07,2.09-.07Z"/>
            <path class="cls-25" d="M770.74,501.29l-1.73,2.59h-.86c0-1.33-.26-2.23.5-2.52.7-.26,1.46-.06,2.09-.06Z"/>
          </g>
          <g>
            <path class="cls-26" d="M871.08,465.96c-.5,3.9-.63,7.95-.37,12.15-.21-3.52-.08-7,.37-10.43.34-.1.84.31.84.91l.04,24.95h32.85s0-30.07,0-30.07c2.48-.21,4.37-.24,6.76,0l1,5.19.06,61.91c0,1.79-1.59,3.83-3.26,3.34s-3.2-1.48-4.58-2.33l-.12-30.13-30.11-.16c-1.61.55-2.09.92-2.59,2.59v27.53c-.01.6-.54,1.01-.86.91-.51-10.66-.65-21.6-.43-32.81.22,11.05.07,21.99-.44,32.81.13.67-.03,1.43-.58,1.64-1.08.43-4.3-1.54-5.45-2.48l-.04-67.93c2.12-.32,3.93-.46,5.84.11,1.08.32,1.1,1.65,1.1,2.3Z"/>
            <polygon class="cls-33" points="871.08 532.32 870.22 532.32 870.66 499.51 871.08 532.32"/>
            <path class="cls-28" d="M871.08,467.68c0,8.65.59,17.28-.44,25.92-1.02-9.13-.09-17.71-.48-26.74-.03-.57.67-1.01.92-.9v1.72Z"/>
            <path class="cls-8" d="M874.54,501.29c-.81.91-1.68,1.78-2.59,2.59,0-.59-.24-1.43.07-2.08.43-.88,1.73-.51,2.52-.5Z"/>
          </g>
          <g>
            <path class="cls-26" d="M840.81,471.13c-2.27-.71-4.65-.71-6.92,0-8.26,1.91-14.49,8.6-17.3,16.37-1.34,2.44-2.19,4.76-1.73,7.76-.59,1.43-.66,2.89,0,4.31-.78,14.74,9.66,28.35,23.16,27.42,7.34-.5,12.75-4.81,19.16-7.52-.67,2.04,1.58,4.28,1.46,5.74-.32,3.9-4.13,4.74-6.59,6.25l-4.32,1.72c-.89-.07-2.64.57-3.46.86l-4.32.86c-7.99.88-15.23-2.24-21.77-7.85-12.24-10.49-15.85-28.35-9.77-43.26,4.56-11.18,13.61-19.12,25.7-21.06,7.95-1.28,25.75,3.69,24.44,12.08-1.11,7.11-10.92-4.95-17.74-3.68Z"/>
            <path class="cls-21" d="M833.89,471.13c-8.02,2.97-13.27,9.01-17.3,16.37,1.55-8.18,8.94-15.65,17.3-16.37Z"/>
            <path class="cls-13" d="M840.81,471.13h-6.92c1.96-1.44,4.96-1.44,6.92,0Z"/>
            <path class="cls-17" d="M852.05,531.46c-1.29.8-2.83,1.99-4.32,1.72.89-1.48,2.7-1.75,4.32-1.72Z"/>
            <path class="cls-22" d="M844.27,534.04c-1.09,1.19-2.86.7-4.32.86.82-1.49,2.89-.75,4.32-.86Z"/>
            <path class="cls-22" d="M814.86,499.57c-1.42-.74-1.42-3.57,0-4.31.2,1.35.07,2.95,0,4.31Z"/>
          </g>
        </g>
        <g>
          <path class="cls-10" d="M578.71,409.08c.81,1.15.63,3.65,0,5.17v40.35c-1.89.31-3.3.33-5.19-.01l-.04-40.35-328.41.02c-.64-2.03-.11-3.6-.25-5.18h333.89Z"/>
          <path class="cls-6" d="M578.71,414.25v-5.17h.86c-.21,1.71.78,4.08-.86,5.17Z"/>
        </g>
        <g>
          <g>
            <path class="cls-26" d="M580.44,468.54l-3.46,6.03-6.92,11.2-6.92,11.2c-1.93,2.82-3.22,6.03-3.46,9.48l.02,24.16c0,1.73-1.69,4.02-3.3,3.31l-4.49-1.98v-29.88s-22.79-38.13-22.79-38.13c1.88-.78,5.68-1.28,7.29.05l18.95,31.2,18.69-31.25c2.01-1.18,5.56-.63,7.4-.23-.21,2.13-1.15,3.04-1.02,4.83Z"/>
            <path class="cls-24" d="M563.14,496.98c1.35-4.07,3.88-8.22,6.92-11.2-1.48,3.76-3.45,8.12-6.92,11.2Z"/>
            <path class="cls-24" d="M570.06,485.78c1.56-3.96,3.69-8.34,6.92-11.2-1.34,4.07-3.89,8.22-6.92,11.2Z"/>
            <path class="cls-12" d="M559.68,506.46c-.59-4.31.97-7.27,3.46-9.48-1.06,3.21-2.29,5.8-3.46,9.48Z"/>
            <path class="cls-31" d="M576.98,474.58c.73-2.22,1.49-4.47,3.46-6.03.18,2.63-1.65,4.43-3.46,6.03Z"/>
          </g>
          <g>
            <path class="cls-26" d="M406.58,471.13c-2.18-.63-4.2-.63-6.05,0h-.86c-5.75,1.61-9.86,4.96-10.38,11.2,1.82,16.28,33.66,5.94,38.92,31.02l-.86,4.31c-.98,1.48-1.34,3.48-1.73,5.17-2.36,3.29-5.24,6.16-8.65,8.62-9.04,4.66-19.6,4.94-28.86-.67-2.23-1.35-5.45-2.77-6.96-4.86-1.42-1.97-.41-5.66-.08-7.69,5.66,2.87,9.83,6.1,15.31,7.84,7.19,2.28,15.34.32,20.09-5.34,2.53-3.02,2.88-6.73,1.85-10.65-2.04-7.75-18.61-7.49-29.26-14.55-4.34-2.88-7.88-6.87-8.37-11.32-.57-5.27.49-10.28,4.23-14.16,8.81-9.14,22.86-9.3,33.8-3.32,6.71,3.67,5.42,8.45,4.34,9.22-2.49,1.78-7-4.22-16.48-4.82Z"/>
            <path class="cls-31" d="M399.66,471.13c-6.7,4.75-6.99,2.35-10.38,11.2-.68-6.12,4.27-11.2,10.38-11.2Z"/>
            <path class="cls-32" d="M416.96,531.46c2.42-3.83,5.23-5.44,8.65-8.62-1.07,4.59-4.86,6.66-8.65,8.62Z"/>
            <path class="cls-15" d="M406.58,471.13h-6.05c1.5-2.48,4.34-.11,6.05,0Z"/>
            <path class="cls-30" d="M427.34,517.67c.11-1.43-.63-3.49.86-4.31.35,1.69,0,3-.86,4.31Z"/>
          </g>
          <g>
            <path class="cls-26" d="M677.32,489.23l-4.7,5.53c-2.47,1.67-4.07,3.56-4.81,5.67,2.26,4.4,4.2,8.81,6.03,13.79l5.57,15.13c.49,1.33.6,2.54-.31,3.45-2.18,2.16-3.16,1.22-6.8-1.36-2.75-7.99-5.18-15.74-8.7-23.26-1.52-3.24-3.33-5-7.07-5.3s-7.01-1.17-10.35-.72c-2.16.14-3.6,1-4.32,2.59.69,7.88.74,16.74,0,24.99-.42,1.66-.32,4.71-3.41,4.16-1.21-.21-2.62-1.54-4.36-2.01l-.02-68.5c14.08.93,32.04-3.72,40.77,8.28,3.97,5.46,3.99,11.54,2.48,17.57ZM641.86,473.72l-.02,20.69c0,.78.59.84.88.85,5.11.23,10.05-.02,15.55-.85,7.32-1.11,13.1-7.55,11.71-14.88-1.02-5.35-5.32-7.54-9.95-7.54.06-.67-.79-.88-1.68-.88l-13.89.02c-.6,0-1.44-.24-2.09.07-.89.43-.51,1.72-.51,2.51ZM653.18,500.84c-4.41-.68-8.34-.72-12.27.04,4.41.68,8.34.72,12.27-.04Z"/>
            <path class="cls-23" d="M667.81,500.43c-.61-.36-1.45-.67-1.72-1.44,7.32-4.03,4.61-5.73,11.24-9.76-1.6,6.41-7.5,7.44-9.51,11.2Z"/>
            <path class="cls-16" d="M641.86,529.73v-24.99c.25-.75.53-.74.86,0-.58,8.34,1.16,16.94-.86,24.99Z"/>
            <path class="cls-24" d="M646.18,502.15c-1.08,1-2.8,1.1-3.46,2.59h-.86c0-.53-.37-1.81.25-2.28,1.35-.81,2.86-.14,4.08-.3Z"/>
            <path class="cls-30" d="M642.72,495.26c-.3-.01-.88-.07-.88-.85l.02-20.69c.25-.75.53-.74.86,0v21.54Z"/>
            <path class="cls-34" d="M660.02,471.99h-15.57c-.76-.24-.74-.53,0-.86l13.89-.02c.89,0,1.75.21,1.68.88Z"/>
            <path class="cls-7" d="M653.18,500.84c-3.93.76-7.87.72-12.27.04,3.93-.76,7.87-.72,12.27-.04Z"/>
            <path class="cls-18" d="M644.45,471.13v.86l-1.73,1.72h-.86c0-.79-.38-2.08.51-2.51.65-.31,1.49-.07,2.09-.07Z"/>
          </g>
          <g>
            <path class="cls-26" d="M528.54,489.23c-2.51,3.62-5.59,6.78-9.25,9.49l-.27,1.72c.33,2.25,2.34,3.83,3.22,6.2l8.42,22.69c.51,1.37.46,2.6-.35,3.47-2.1,2.26-3.58,1.03-6.75-1.38-3.06-7.91-4.85-15.99-8.58-23.35-1.79-3.53-4.22-5.09-8.07-5.22-3.61-.12-7.03-1.21-10.37-.68-1.76.25-2.91,1.11-3.46,2.59.68,7.88.76,16.74,0,24.99-.32,1.27-.52,3.87-2.7,4.04-1.42.11-3.03-1.59-5.08-1.75v-68.65c13.61.84,32.24-3.39,40.78,8.27,4.1,5.58,3.92,11.35,2.47,17.59ZM493.08,474.58l-.02,19.83c0,.78.59.84.88.85,5.12.21,10.01,0,15.58-.85,7.19-1.1,13.4-7.76,11.75-15-1.09-4.8-5.02-7.4-9.17-7.41.06-.66-.8-.89-1.68-.89h-17.19c-.36,1.48-.15,2.48-.15,3.47ZM502.68,500.84c-3.82-.68-7.2-.73-10.54.04,3.82.68,7.19.73,10.54-.04Z"/>
            <path class="cls-9" d="M519.03,500.43c-.62-.38-1.4-.58-1.85-1.61,3.31-1.17,4.51-3.63,6.76-5.59l4.6-4c-1.57,6.76-7,6.81-9.51,11.2Z"/>
            <path class="cls-16" d="M493.08,529.73v-24.99c.25-.75.53-.74.86,0-.6,8.33,1.19,16.94-.86,24.99Z"/>
            <path class="cls-25" d="M496.54,502.15c-.64.9-2.43,1.38-2.59,2.59h-.86c0-.81-.38-2.18.51-2.51,1.03-.39,2.09.06,2.95-.07Z"/>
            <path class="cls-30" d="M512.11,471.99l-15.61-.04c-2.29,0-2.4,1.32-2.55,2.62-.25.75-.53.74-.86,0,0-.99-.2-1.99.15-3.46h17.19c.89-.02,1.75.21,1.68.87Z"/>
            <path class="cls-5" d="M493.95,495.26c-.29-.01-.88-.07-.88-.85l.02-19.83h.86v20.68Z"/>
            <path class="cls-11" d="M502.68,500.84c-3.35.77-6.73.72-10.54.04,3.35-.77,6.72-.72,10.54-.04Z"/>
          </g>
          <g>
            <path class="cls-26" d="M479.24,488.37c-2.11,5.23-6.03,9.77-11.24,12.06-2.13.41-4.88,1.14-6.92,1.72-4.74.69-9.35.69-13.84,0-1.67.34-2.83,1.21-3.46,2.59l-.07,26.63c-.25.93-2.47,2.62-3.38,2.39-1.47-.37-3.13-1.59-5.21-1.76l.09-68.43c14.22.42,32.56-3.48,40.86,7.76,4.14,5.61,4.59,10.76,3.18,17.04ZM442.49,495.32c.7-8.73.72-16.92-.02-25.12-.7,8.73-.72,16.92.02,25.12ZM443.78,473.72v21.52c7.81-.5,22.29,1.69,26.5-7.96,1.61-3.68,1.76-7.15-.26-10.62-1.54-2.65-4.67-4.66-8.94-4.66.07-.67-.79-.88-1.68-.88l-13.02.02c-.79,0-2.07-.36-2.52.51-.33.64-.03,1.49-.07,2.08ZM442.49,528.93c.7-9.59.72-18.64-.02-27.7-.7,9.59-.72,18.64.02,27.7Z"/>
            <path class="cls-17" d="M468,500.43c5.48-3.9,3.11-3.45,7.72-6.98,1.79-1.37,1.84-3.96,3.52-5.09-1.3,5.78-5.24,10.91-11.24,12.06Z"/>
            <path class="cls-22" d="M461.08,502.15c-4.5,1.29-9.08.84-13.84.86-.76-.24-.74-.53,0-.86h13.84Z"/>
            <path class="cls-27" d="M447.24,502.15v.86c-1.35,0-2.41,1.01-3.46,1.72,0-.79-.39-2.22.51-2.5,1.02-.32,2.08-.08,2.95-.08Z"/>
            <path class="cls-35" d="M442.49,528.93c-.75-9.06-.72-18.11-.02-27.7.75,9.06.72,18.11.02,27.7Z"/>
            <path class="cls-35" d="M442.49,495.32c-.75-8.2-.72-16.39-.02-25.12.75,8.2.72,16.39.02,25.12Z"/>
            <path class="cls-34" d="M461.08,471.99h-14.7c-.76-.24-.74-.53,0-.86l13.02-.02c.89,0,1.75.21,1.68.88Z"/>
            <path class="cls-25" d="M446.37,471.13v.86l-2.59,1.72c.04-.59-.26-1.44.07-2.08.45-.87,1.73-.51,2.52-.51Z"/>
          </g>
          <g>
            <path class="cls-26" d="M614.18,510.77c-7.29-.3-14.5-.59-21.62-.86-1.18.52-2.04,1.38-2.59,2.59l-7.78,19.89c-1.39,1.58-5.57.03-6.94-.66l23.34-68.05c1.77-.45,4.61-.78,5.84-.04,3.16,4.88,4.73,10.23,6.72,15.79l17.92,50.07c.64,1.8.7,2.64-.5,3.83s-2.22.1-3.67-.24c-5.2-1.2-6.93-18.31-10.71-22.3ZM600.34,481.47c-2.63,5.44-4.37,11.43-6.05,17.24-.34,1.18-1.53,2.44-2.53,3.87,1.6,1.77,3.66-.41,5.13-.42l15.04-.1-8.12-23.17c-.41-1.17-.94-2.19-1.24-3.47-1.22,2.46-2.48,4.02-2.22,6.05Z"/>
            <path class="cls-4" d="M614.18,510.77h-21.62c-.76-.24-.74-.53,0-.86,7.21.61,14.73-1.2,21.62.86Z"/>
            <path class="cls-1" d="M592.55,509.91v.86l-2.59,1.72c-.11-1.34-.02-2.18.56-2.47.67-.32,1.42-.17,2.03-.12Z"/>
            <path class="cls-29" d="M603.8,478.89c-1.44-.02-2.83,1.28-3.46,2.59-.25-2.03,1.01-3.59,2.22-6.05.3,1.28.83,2.3,1.24,3.47Z"/>
            <path class="cls-3" d="M596.88,502.15c-1.47,0-3.53,2.2-5.13.42,1.01-1.42,2.19-2.69,2.53-3.87.05.86-.26,1.91.09,2.92.3.87,1.7.55,2.51.52Z"/>
          </g>
        </g>
      </g>
    </g>
  </g>
</svg>